<?xml version="1.0" encoding="UTF-8"?>
<svg width="2825px" height="402px" viewBox="0 0 2825 402" version="1.1" xmlns="http://www.w3.org/2000/svg" xmlns:xlink="http://www.w3.org/1999/xlink">
    <!-- Generator: Sketch 59.1 (86144) - https://sketch.com -->
    <title>Group</title>
    <desc>Created with Sketch.</desc>
    <g id="Symbols" stroke="none" stroke-width="1" fill="none" fill-rule="evenodd">
        <g id="LOGO" fill="#43FF47">
            <g id="Group">
                <path d="M287.507977,402 C493.773895,402 530.70345,335.176748 530.70345,269.919571 L530.70345,264.296503 C530.70345,184.690638 472.380375,149.66238 322.32706,145.415485 L251.276976,143.822282 C177.047608,142.231546 165.382005,129.493325 165.382005,113.573632 L165.382005,113.04092 C165.382005,97.6514724 173.335152,83.8527607 252.338383,83.8527607 L257.640481,83.8527607 C343.004748,83.8527607 351.488598,111.450184 353.07824,125.779141 L518.361509,125.779141 L518.361509,121.638294 C518.361509,60.5614233 473.854003,-5.68434189e-14 278.868619,-5.68434189e-14 L231.712531,-5.68434189e-14 C47.8546409,-5.68434189e-14 4.93677628,54.8668344 4.93677628,117.497448 L4.93677628,124.087288 C4.93677628,183.511767 45.5861922,235.702712 197.619155,239.83616 L270.471162,241.90535 C352.821527,244.489988 362.853057,256.890331 362.853057,276.526675 L362.853057,277.042123 C362.853057,295.645104 350.711055,313.214724 266.775985,313.214724 L262.024338,313.214724 C176.504562,313.214724 165.419031,279.626761 163.834326,258.957055 L0,258.957055 L0,264.178123 C0,314.815325 22.684487,402 239.502764,402 L287.507977,402 Z" id="Fill-1"></path>
                <polygon id="Fill-3" points="562.625462 4.98759305 562.625462 395.01737 1001.55313 395.01737 1001.55313 298.744197 710.578608 298.744197 710.578608 244.436253 991.689585 244.436253 991.689585 150.631624 710.578608 150.631624 710.578608 101.260766 996.621356 101.260766 996.621356 4.98759305"></polygon>
                <polygon id="Fill-5" points="1035.47027 4.98759305 1035.47027 395.01737 1474.39793 395.01737 1474.39793 298.744197 1183.42341 298.744197 1183.42341 244.436253 1464.53439 244.436253 1464.53439 150.631624 1183.42341 150.631624 1183.42341 101.260766 1469.46616 101.260766 1469.46616 4.98759305"></polygon>
                <polygon id="Fill-7" points="1698.84958 395.01737 1844.41761 395.01737 1844.41761 152.396632 1982.15457 395.01737 2058.96761 395.01737 2197.23504 152.396632 2197.23504 395.01737 2345.27032 395.01737 2345.27032 4.98759305 2147.75178 4.98759305 2025.22791 224.117677 1904.816 4.98759305 1698.84958 4.98759305"></polygon>
                <polygon id="Fill-9" points="2385.17284 4.98759305 2385.17284 395.01737 2824.1005 395.01737 2824.1005 298.744197 2533.12598 298.744197 2533.12598 244.436253 2814.23696 244.436253 2814.23696 150.631624 2533.12598 150.631624 2533.12598 101.260766 2819.16873 101.260766 2819.16873 4.98759305"></polygon>
            </g>
        </g>
    </g>
</svg>